HIERARCHY
ROOT Hips
{
 OFFSET 0.000000 0.000000 0.000000
 CHANNELS 6 Xposition Yposition Zposition Yrotation Xrotation Zrotation
 JOINT Chest
 {
  OFFSET 0.000000 9.585900 0.002600
  CHANNELS 3 Yrotation Xrotation Zrotation
  JOINT Chest2
  {
   OFFSET 0.000000 9.601200 -0.005300
   CHANNELS 3 Yrotation Xrotation Zrotation
   JOINT Chest3
   {
    OFFSET 0.000000 9.561800 0.000000
    CHANNELS 3 Yrotation Xrotation Zrotation
    JOINT Chest4
    {
     OFFSET 0.000000 9.552100 0.000000
     CHANNELS 3 Yrotation Xrotation Zrotation
     JOINT Neck
     {
      OFFSET 0.000000 14.453000 0.000000
      CHANNELS 3 Yrotation Xrotation Zrotation
      JOINT Head
      {
       OFFSET 0.000000 8.936500 -0.011300
       CHANNELS 3 Yrotation Xrotation Zrotation
       End Site
       {
        OFFSET 0.000000 17.073600 -0.006000
       }
      }
     }
     JOINT RightCollar
     {
      OFFSET -2.921100 9.558500 0.000000
      CHANNELS 3 Yrotation Xrotation Zrotation
      JOINT RightShoulder
      {
       OFFSET -13.519700 0.000000 0.000000
       CHANNELS 3 Yrotation Xrotation Zrotation
       JOINT RightElbow
       {
        OFFSET 0.000000 -29.696600 0.000000
        CHANNELS 3 Yrotation Xrotation Zrotation
        JOINT RightWrist
        {
         OFFSET 0.000000 -24.004700 0.000000
         CHANNELS 3 Yrotation Xrotation Zrotation
         End Site
         {
          OFFSET 0.000000 -17.728500 0.000000
         }
        }
       }
      }
     }
     JOINT LeftCollar
     {
      OFFSET 2.921100 9.558500 0.000000
      CHANNELS 3 Yrotation Xrotation Zrotation
      JOINT LeftShoulder
      {
       OFFSET 13.519700 0.000000 0.000000
       CHANNELS 3 Yrotation Xrotation Zrotation
       JOINT LeftElbow
       {
        OFFSET 0.000000 -29.696600 0.000000
        CHANNELS 3 Yrotation Xrotation Zrotation
        JOINT LeftWrist
        {
         OFFSET 0.000000 -24.004700 0.000000
         CHANNELS 3 Yrotation Xrotation Zrotation
         End Site
         {
          OFFSET 0.000000 -17.728500 0.000000
         }
        }
       }
      }
     }
    }
   }
  }
 }
 JOINT RightHip
 {
  OFFSET -7.771700 -0.012900 -0.001300
  CHANNELS 3 Yrotation Xrotation Zrotation
  JOINT RightKnee
  {
   OFFSET 0.000000 -40.869800 0.001200
   CHANNELS 3 Yrotation Xrotation Zrotation
   JOINT RightAnkle
   {
    OFFSET 0.000000 -39.717900 0.002100
    CHANNELS 3 Yrotation Xrotation Zrotation
    JOINT RightToe
    {
     OFFSET 0.000000 -4.965400 11.033500
     CHANNELS 3 Yrotation Xrotation Zrotation
     End Site
     {
      OFFSET 0.000000 -1.423100 5.872300
     }
    }
   }
  }
 }
 JOINT LeftHip
 {
  OFFSET 7.771700 -0.012900 -0.001300
  CHANNELS 3 Yrotation Xrotation Zrotation
  JOINT LeftKnee
  {
   OFFSET 0.000000 -40.869800 0.001200
   CHANNELS 3 Yrotation Xrotation Zrotation
   JOINT LeftAnkle
   {
    OFFSET 0.000000 -39.717900 0.002100
    CHANNELS 3 Yrotation Xrotation Zrotation
    JOINT LeftToe
    {
     OFFSET 0.000000 -4.965400 11.033500
     CHANNELS 3 Yrotation Xrotation Zrotation
     End Site
     {
      OFFSET 0.000000 -1.423100 5.872300
     }
    }
   }
  }
 }
}
MOTION
Frames: 13
Frame Time: 0.008333
-24.984909 52.000339 28.543018 -179.533790 -36.359554 0.615879 1.049551 27.052699 -0.711976 0.174659 4.644948 -0.046986 0.272038 7.374742 -0.074373 0.828719 22.027939 -0.099622 -4.662540 16.438770 -3.501331 -4.159131 -8.385963 -2.652596 10.942328 13.814957 15.017460 23.515076 -14.079652 -38.781761 -171.704801 -67.490129 119.310547 -5.877496 -2.376438 -19.308915 -12.486278 14.929621 -19.614184 -28.818399 -14.461868 44.194560 142.096441 -54.496450 -88.319991 23.020604 -12.019777 -3.586631 -7.549466 -46.499700 -2.040597 -59.045128 81.709532 -67.825403 -3.764170 -5.795332 7.818047 0.153637 -0.703995 0.097716 1.379359 -43.962051 -4.844387 33.770614 82.612376 38.896556 -1.450107 -10.226596 -2.469427 0.232420 0.554834 0.102664
-24.986721 51.997596 28.542461 -179.526929 -36.371488 0.613899 1.040208 27.079397 -0.723286 0.177481 4.633923 -0.040941 0.268784 7.403887 -0.081804 0.827191 22.031292 -0.101989 -4.642559 16.435537 -3.505021 -4.146418 -8.397542 -2.653918 10.948534 13.828099 14.996022 23.522624 -14.084023 -38.806614 -171.987073 -67.545394 119.601721 -5.863573 -2.436553 -19.225007 -12.471664 14.917701 -19.616221 -28.823951 -14.454149 44.249697 142.159366 -54.512578 -88.402407 23.043052 -12.068116 -3.650877 -7.549630 -46.490273 -2.046616 -59.085747 81.716713 -67.866496 -3.769420 -5.809018 7.816225 0.154586 -0.692804 0.099922 1.370999 -43.951049 -4.845243 33.780302 82.611220 38.905576 -1.450788 -10.230519 -2.473093 0.234046 0.565203 0.104503
-24.987919 51.994753 28.543934 -179.535256 -36.372782 0.616796 1.046466 27.093971 -0.726896 0.174086 4.644560 -0.045696 0.270666 7.415756 -0.081461 0.820110 22.093004 -0.117865 -4.616235 16.352872 -3.483830 -4.144126 -8.406665 -2.651247 10.962545 13.768452 14.981879 23.530959 -14.098185 -38.822319 -172.292263 -67.651813 119.926804 -5.852120 -2.497960 -19.119722 -12.447779 14.847020 -19.598585 -28.833675 -14.449822 44.293951 142.217297 -54.547092 -88.481343 23.069001 -12.110361 -3.730287 -7.544638 -46.489275 -2.042100 -59.031692 81.729681 -67.816700 -3.782119 -5.819938 7.818333 0.150890 -0.669511 0.095117 1.369569 -43.949096 -4.839478 33.782694 82.606437 38.905467 -1.448815 -10.233864 -2.474780 0.231407 0.573831 0.103969
-24.990185 51.992634 28.546545 -179.533895 -36.370212 0.619853 1.043365 27.096113 -0.732729 0.166503 4.691685 -0.060274 0.275713 7.390895 -0.073528 0.820807 22.101365 -0.121134 -4.602326 16.328191 -3.478871 -4.115139 -8.427599 -2.662513 10.967521 13.763976 14.968860 23.540007 -14.103438 -38.837451 -172.589983 -67.776956 120.238496 -5.837116 -2.555344 -19.003100 -12.461779 14.859160 -19.626887 -28.832661 -14.438495 44.379050 142.264330 -54.555117 -88.539929 23.097631 -12.151812 -3.818560 -7.541647 -46.493007 -2.044652 -59.017966 81.737529 -67.808392 -3.790668 -5.838046 7.823858 0.155523 -0.645629 0.089839 1.368231 -43.950722 -4.841918 33.772198 82.599145 38.891454 -1.450682 -10.234185 -2.474124 0.231263 0.581879 0.103528
-24.992261 51.991400 28.549969 -179.532998 -36.365491 0.621477 1.031865 27.112457 -0.748544 0.170626 4.694382 -0.060890 0.275512 7.396786 -0.075022 0.819082 22.108369 -0.125846 -4.578772 16.306459 -3.475903 -4.068886 -8.484126 -2.666799 10.976127 13.756079 14.955468 23.549823 -14.034708 -38.898295 -172.817982 -67.850017 120.428501 -5.820351 -2.603800 -18.892116 -12.456460 14.843076 -19.624533 -28.827771 -14.405667 44.421720 142.305806 -54.560585 -88.585105 23.125268 -12.181741 -3.912338 -7.538125 -46.496189 -2.041932 -58.997947 81.735964 -67.796469 -3.795839 -5.856350 7.836446 0.150953 -0.623197 0.082350 1.368372 -43.955044 -4.843211 33.758453 82.591939 38.874718 -1.451230 -10.230567 -2.472149 0.229253 0.585838 0.102524
-24.993805 51.991268 28.553771 -179.533864 -36.361032 0.620175 1.027325 27.146238 -0.766753 0.175050 4.667153 -0.048578 0.271251 7.418063 -0.083684 0.817357 22.108319 -0.128017 -4.554679 16.279723 -3.469035 -4.070294 -8.495255 -2.659364 10.985175 13.748834 14.941637 23.557477 -14.008457 -38.934064 -173.027916 -67.962299 120.633990 -5.802442 -2.640960 -18.796849 -12.442618 14.819309 -19.612504 -28.828025 -14.378337 44.440539 142.315162 -54.582239 -88.609693 23.154781 -12.203874 -3.991761 -7.532944 -46.500072 -2.033875 -58.942774 81.745637 -67.744988 -3.825022 -5.860759 7.842812 0.160980 -0.614505 0.080994 1.361694 -43.957887 -4.833688 33.727653 82.585522 38.835509 -1.447486 -10.229331 -2.476317 0.222778 0.591827 0.107801
-24.993526 51.992067 28.557891 -179.528775 -36.356238 0.603300 1.028058 27.158650 -0.762136 0.175526 4.660244 -0.044669 0.270655 7.424626 -0.086063 0.819795 22.098374 -0.124151 -4.545573 16.272008 -3.470445 -4.047059 -8.527643 -2.654839 10.983305 13.763474 14.923778 23.565946 -14.020544 -38.936877 -173.226645 -68.100701 120.861384 -5.780799 -2.664243 -18.729330 -12.454924 14.838107 -19.626069 -28.820235 -14.360975 44.479542 142.292378 -54.587247 -88.603915 23.183399 -12.215162 -4.053420 -7.545860 -46.501373 -2.009814 -58.915861 81.743075 -67.716786 -3.839198 -5.865498 7.844780 0.171614 -0.610013 0.081107 1.336739 -43.962812 -4.799370 33.657584 82.585141 38.754495 -1.453400 -10.231177 -2.475039 0.228296 0.599011 0.109581
-24.994531 51.992506 28.563919 -179.533206 -36.338313 0.598312 1.033091 27.157211 -0.767065 0.176529 4.663019 -0.041338 0.272819 7.410655 -0.080046 0.812020 22.118207 -0.135917 -4.519134 16.235745 -3.469884 -4.008803 -8.583312 -2.643033 10.986664 13.754045 14.908130 23.557117 -13.993826 -38.969430 -173.293908 -68.175991 120.942215 -5.762337 -2.670478 -18.695371 -12.467615 14.846466 -19.644512 -28.802652 -14.337265 44.536177 142.220713 -54.582485 -88.561967 23.212669 -12.224276 -4.077851 -7.545759 -46.518113 -1.994147 -58.849357 81.748110 -67.653063 -3.849869 -5.868268 7.852522 0.175145 -0.607100 0.078669 1.332227 -43.981137 -4.784323 33.615907 82.581668 38.708190 -1.453031 -10.225585 -2.473100 0.228839 0.600283 0.107952
-24.997027 51.992880 28.571047 -179.537173 -36.312016 0.600239 1.034627 27.143070 -0.778639 0.175676 4.668393 -0.044469 0.273189 7.412490 -0.081789 0.798301 22.133991 -0.172025 -4.475619 16.191365 -3.438455 -4.010301 -8.579368 -2.626404 11.006004 13.722589 14.921706 23.527215 -13.945136 -39.032081 -173.193667 -68.187668 120.851459 -5.753525 -2.662502 -18.693382 -12.438624 14.829893 -19.603022 -28.795125 -14.325743 44.552297 142.133507 -54.573695 -88.497279 23.212514 -12.193259 -4.057254 -7.539803 -46.542407 -1.986261 -58.755104 81.744624 -67.562747 -3.862408 -5.866675 7.859228 0.175711 -0.604166 0.078652 1.334977 -44.006068 -4.779116 33.606200 82.565833 38.689409 -1.455149 -10.213573 -2.478574 0.221179 0.600709 0.115412
-25.001558 51.992533 28.579833 -179.526231 -36.272033 0.603764 1.020172 27.107193 -0.794686 0.170241 4.688252 -0.069640 0.273202 7.411068 -0.087597 0.805541 22.120859 -0.167382 -4.451528 16.177499 -3.419907 -3.979950 -8.611260 -2.625448 11.008185 13.714280 14.922300 23.510171 -13.921059 -39.071205 -173.053849 -68.192026 120.732579 -5.752165 -2.644022 -18.726788 -12.418770 14.828010 -19.578559 -28.788102 -14.309591 44.559554 142.044916 -54.549182 -88.421600 23.196291 -12.136178 -3.986568 -7.541978 -46.581355 -1.984694 -58.677915 81.736353 -67.494156 -3.879422 -5.870036 7.862272 0.186923 -0.597245 0.084261 1.336776 -44.043326 -4.784893 33.538229 82.543217 38.604302 -1.461987 -10.197738 -2.464603 0.215257 0.604993 0.111271
-25.004192 51.993455 28.587088 -179.543835 -36.239990 0.611094 1.030151 27.086358 -0.808111 0.174003 4.690353 -0.074998 0.272492 7.408544 -0.091746 0.806594 22.115402 -0.172596 -4.431039 16.167293 -3.403102 -3.950351 -8.641395 -2.629709 11.007832 13.705864 14.921840 23.501737 -13.907867 -39.096251 -172.906020 -68.181386 120.599247 -5.766429 -2.607745 -18.792783 -12.404857 14.836145 -19.561364 -28.759784 -14.267030 44.560737 142.026669 -54.490502 -88.408082 23.166632 -12.050345 -3.864343 -7.535096 -46.610739 -1.971589 -58.565855 81.730775 -67.389067 -3.877189 -5.871511 7.865967 0.176855 -0.591916 0.084523 1.350435 -44.068870 -4.773714 33.448319 82.533129 38.506800 -1.469031 -10.202418 -2.461801 0.220841 0.616484 0.112351
-25.005446 51.996580 28.591173 -179.552442 -36.227422 0.603334 1.050828 27.097893 -0.815564 0.172420 4.675659 -0.063812 0.271346 7.405252 -0.094737 0.802063 22.111526 -0.182325 -4.407177 16.153511 -3.397809 -3.925194 -8.660101 -2.629104 11.009807 13.695989 14.919838 23.494355 -13.896633 -39.115852 -172.781969 -68.160146 120.473942 -5.812348 -2.550656 -18.885483 -12.392795 14.845757 -19.557157 -28.745454 -14.248084 44.566968 141.981230 -54.450649 -88.371638 23.127749 -11.958259 -3.706046 -7.544740 -46.619649 -1.945463 -58.505703 81.722783 -67.333101 -3.880435 -5.863276 7.865548 0.188771 -0.612952 0.086616 1.347694 -44.078520 -4.752660 33.396604 82.529869 38.452676 -1.468946 -10.200001 -2.465895 0.220934 0.616027 0.115348
-25.007788 51.999218 28.595431 -179.539707 -36.209309 0.588460 1.049335 27.089784 -0.817457 0.171795 4.671845 -0.062077 0.270195 7.401506 -0.092529 0.793035 22.110076 -0.201504 -4.385167 16.143079 -3.395066 -3.902713 -8.672811 -2.630553 11.020660 13.687611 14.930482 23.489704 -13.882901 -39.142568 -172.464058 -68.090903 120.162390 -5.803507 -2.534969 -18.995456 -12.379444 14.848786 -19.544714 -28.734283 -14.235807 44.566907 141.922753 -54.410056 -88.318289 23.084224 -11.872694 -3.525392 -7.573125 -46.630176 -1.924862 -58.416160 81.713895 -67.251416 -3.882160 -5.867142 7.867073 0.190830 -0.606639 0.087368 1.333313 -44.095849 -4.737250 33.304496 82.528742 38.352874 -1.465970 -10.194168 -2.459926 0.218475 0.616051 0.113622
